PathFileType	4	(X/Y/Z)	C:/Users/opensim2020/Desktop/walking_exp_matlab/subject02_walking10_straight_01.trc																																																																																																																															
DataRate	CameraRate	NumFrames	NumMarkers	Units	OrigDataRate	OrigDataStartFrame	OrigNumFrames																																																																																																																											
100	100	5	43	mm	100	490	328																																																																																																																											
Frame#	Time	LFHD			RFHD			LBHD			RBHD			C7			T10			CLAV			STRN			RBAK			LSHO			LUPA			LELB			LFRM			LWRA			LWRB			LFIN			RSHO			RUPA			RELB			RFRM			RWRA			RWRB			RFIN			LASI			RASI			LPSI			RPSI			LTHI			LKNE			LTIB			LANK			LHEE			LTOE			RTHI			RKNE			RTIB			RANK			RHEE			RTOE			*39			*40			*41			*42		
		X1	Y1	Z1	X2	Y2	Z2	X3	Y3	Z3	X4	Y4	Z4	X5	Y5	Z5	X6	Y6	Z6	X7	Y7	Z7	X8	Y8	Z8	X9	Y9	Z9	X10	Y10	Z10	X11	Y11	Z11	X12	Y12	Z12	X13	Y13	Z13	X14	Y14	Z14	X15	Y15	Z15	X16	Y16	Z16	X17	Y17	Z17	X18	Y18	Z18	X19	Y19	Z19	X20	Y20	Z20	X21	Y21	Z21	X22	Y22	Z22	X23	Y23	Z23	X24	Y24	Z24	X25	Y25	Z25	X26	Y26	Z26	X27	Y27	Z27	X28	Y28	Z28	X29	Y29	Z29	X30	Y30	Z30	X31	Y31	Z31	X32	Y32	Z32	X33	Y33	Z33	X34	Y34	Z34	X35	Y35	Z35	X36	Y36	Z36	X37	Y37	Z37	X38	Y38	Z38	X39	Y39	Z39	X40	Y40	Z40	X41	Y41	Z41	X42	Y42	Z42	X43	Y43	Z43
																																																																																																																																		
42	0.41	-1090.51318	1715.02881	1369.97034	-1110.19348	1684.38757	1510.23169	-1219.6217	1644.90747	1338.07056	-1252.00854	1613.526	1474.65613	-1288.76929	1500.7821	1398.37622	-1354.32642	1228.7113	1400.13989	-1153.9425	1427.04663	1386.49438	-1110.43762	1252.90808	1388.30017	-1357.20398	1328.64673	1455.94556	-1213.90833	1479.84949	1217.47241	-1209.42529	1279.81274	1126.79675	-1192.66638	1137.81055	1110.84802	-1150.99915	1011.15131	1106.8418	-1071.44104	907.20605	1153.63831	-1110.42749	895.29504	1114.5094	-1072.81641	841.47101	1115.86707	-1215.01086	1452.56812	1584.91687	-1259.0166	1264.84131	1664.93689	-1252.25366	1120.37537	1690.26123	-1222.47107	1005.17664	1715.45642	-1171.61389	879.06543	1699.84949	-1217.13147	875.24548	1731.26843	-1177.89819	814.05298	1736.11975	-1146.08228	955.82617	1252.75525	-1123.95789	951.91284	1509.44397	-1346.21533	1006.54596	1354.5636	-1341.20129	1007.16992	1468.84302	-1267.34937	653.08136	1215.14673	-1338.39819	462.7861	1245.20837	-1449.10925	301.52365	1244.86023	-1510.09265	83.87569	1277.40625	-1552.97815	63.33449	1327.73547	-1363.48242	23.93804	1266.80725	-1140.81165	661.01709	1603.37805	-1077.33521	463.58273	1572.23718	-1071.85413	276.60217	1586.57715	-1041.51111	84.55561	1565.49878	-1064.36267	29.93003	1509.28406	-884.12726	42.26109	1585.03503	-1201.11841	1775.23853	1450.97949	2845.72534	1034.45679	-3357.47729	NaN	NaN	NaN	NaN	NaN	NaN
43	0.42	-1083.4834	1715.41431	1373.57422	-1102.96484	1684.87024	1514.40112	-1212.20923	1645.10107	1341.78015	-1244.34009	1613.16479	1478.19128	-1280.77844	1501.15662	1401.96277	-1346.54065	1228.97083	1403.50269	-1146.14148	1427.26733	1389.86145	-1102.41309	1253.23755	1391.76343	-1349.20581	1328.90186	1459.71252	-1206.26563	1479.91956	1220.7168	-1203.38318	1279.67786	1130.3855	-1188.08923	1137.56409	1115.0144	-1149.10144	1010.11749	1109.60999	-1071.65381	903.84766	1154.68628	-1111.20361	893.50287	1115.80212	-1074.90222	838.4491	1116.57935	-1206.56335	1452.43445	1588.43042	-1251.427	1265.00513	1668.33923	-1245.60498	1120.58203	1693.18262	-1216.38574	1005.07739	1718.29346	-1166.07605	878.57416	1702.58521	-1211.73486	874.98029	1733.94446	-1172.97595	813.84235	1739.02527	-1137.245	955.61511	1255.86182	-1115.55835	952.29614	1512.35864	-1337.6178	1006.52911	1358.0155	-1332.59583	1008.29968	1472.43982	-1259.99817	653.29993	1217.26025	-1331.68298	463.67868	1246.89453	-1444.84619	304.15311	1246.16235	-1508.74988	87.01527	1277.27002	-1551.66553	67.28046	1327.6499	-1363.47632	24.01314	1266.61902	-1133.48755	662.16461	1606.23352	-1068.05347	465.08118	1574.36462	-1064.32874	277.56659	1589.35107	-1039.72852	84.90989	1565.84131	-1064.02222	30.48745	1509.78845	-883.51587	39.71534	1585.80322	-1194.29297	1775.3772	1455.00513	2845.77344	1034.21094	-3357.29614	NaN	NaN	NaN	NaN	NaN	NaN
44	0.43	-1076.14038	1716.57788	1377.81653	-1095.79883	1685.26025	1517.95398	-1204.58276	1645.30835	1345.52405	-1236.80151	1613.09778	1481.82922	-1272.99646	1501.68494	1405.52429	-1338.69238	1229.37219	1406.75293	-1138.30847	1427.70959	1393.26367	-1094.32666	1253.79785	1395.21155	-1341.20007	1329.34692	1463.43262	-1198.45459	1480.31238	1224.07813	-1196.4209	1279.65271	1134.61084	-1183.41309	1137.60779	1119.06042	-1147.59253	1009.70032	1112.30701	-1072.35339	901.27948	1156.03174	-1112.43213	891.92596	1117.33374	-1077.70935	836.0498	1117.23389	-1198.35181	1452.75769	1591.83533	-1243.63477	1265.52637	1671.80786	-1238.65857	1120.97607	1696.05603	-1210.1178	1005.24359	1721.14929	-1160.35901	878.69141	1705.29541	-1206.20801	875.14099	1736.49536	-1167.60608	813.83643	1741.80884	-1128.81287	955.54645	1258.87634	-1107.04138	953.37445	1515.58289	-1328.67969	1006.72552	1361.15076	-1324.03845	1009.67847	1475.70227	-1252.44189	653.9635	1219.3667	-1324.62756	464.87924	1248.552	-1440.26062	307.10425	1247.50305	-1507.62476	90.45887	1277.40771	-1550.22107	71.85843	1327.35474	-1363.35132	24.04738	1266.45947	-1125.22278	663.55975	1608.39575	-1058.88367	466.10495	1576.28601	-1057.55713	278.16379	1591.92847	-1038.00012	85.14641	1565.57483	-1063.47681	30.76066	1509.93994	-882.46381	38.0634	1585.31738	-1187.47375	1775.56482	1459.00134	2845.18433	1034.17651	-3360.26294	NaN	NaN	NaN	NaN	NaN	NaN
45	0.44	-1069.14868	1717.36267	1381.43542	-1088.6449	1686.14246	1522.13135	-1197.18091	1645.86182	1349.20593	-1229.28027	1613.18726	1485.47705	-1265.42346	1502.25781	1409.03406	-1330.73108	1229.75037	1409.95215	-1130.57007	1428.35583	1396.63818	-1086.47791	1254.56287	1398.56018	-1333.06689	1329.70398	1467.13306	-1190.53333	1480.90405	1227.47424	-1190.33557	1280.06201	1138.36426	-1178.94519	1137.93054	1123.05676	-1146.09705	1009.388	1115.14282	-1073.31653	898.4762	1157.32874	-1113.79102	890.96228	1118.73486	-1080.68311	833.93878	1117.96973	-1190.07751	1453.46008	1595.34888	-1235.73657	1266.27832	1675.2428	-1231.33728	1121.396	1698.8584	-1203.57556	1005.63702	1723.8844	-1154.46716	878.92053	1708.50281	-1200.45325	875.55627	1739.17273	-1162.35535	814.03912	1744.56787	-1120.04126	955.75696	1262.29736	-1097.43335	954.88025	1519.40845	-1319.6875	1007.22113	1364.09094	-1315.67847	1011.1817	1478.83447	-1243.97766	654.46344	1222.00635	-1316.93481	466.13065	1250.12903	-1435.14514	310.2449	1248.76489	-1505.72876	94.29893	1277.18262	-1548.18982	76.6449	1327.21985	-1363.07727	23.92726	1266.26843	-1115.7395	665.11359	1610.38806	-1050.18274	466.73273	1577.99182	-1051.7782	278.48532	1593.57324	-1036.14563	85.49969	1565.71924	-1063.32593	31.47897	1510.41272	-880.9035	36.84759	1584.15344	-1180.72888	1775.88281	1462.97913	2845.25049	1034.29395	-3360.30786	NaN	NaN	NaN	NaN	NaN	NaN
46	0.45	-1061.99158	1718.90088	1385.55127	-1081.51563	1687.0177	1525.96924	-1189.75513	1646.61169	1352.94849	-1221.7655	1613.47058	1489.06775	-1257.9884	1502.92126	1412.44153	-1322.74268	1230.24658	1413.15491	-1123.02429	1429.245	1400.02234	-1078.4939	1255.5769	1402.05005	-1325.02832	1330.33313	1470.82715	-1182.71655	1481.71875	1230.84277	-1183.86609	1280.65271	1142.37207	-1174.36902	1138.55273	1127.21387	-1144.54114	1009.03723	1118.05322	-1074.38745	896.41693	1158.68359	-1115.28418	890.24377	1120.42493	-1083.8374	832.30792	1118.9679	-1181.9165	1454.2948	1598.63818	-1227.73169	1267.28418	1678.79504	-1224.05859	1122.41077	1701.76709	-1196.94128	1006.41248	1726.78906	-1148.38721	879.31171	1711.06738	-1194.46472	876.19348	1741.89258	-1156.79395	814.5968	1747.3313	-1111.14001	956.14575	1265.99207	-1089.27869	956.40643	1522.66406	-1310.58765	1007.80847	1366.84558	-1307.40198	1012.40674	1481.78442	-1235.5968	655.21973	1224.54883	-1308.59827	467.47971	1251.52991	-1429.48279	313.71759	1249.97131	-1503.48792	98.57229	1276.85388	-1545.74121	81.92144	1327.10376	-1362.82483	23.92586	1266.07446	-1105.14099	666.59552	1612.97241	-1042.38257	466.92767	1579.32471	-1046.80847	278.71799	1594.45337	-1034.62073	85.64542	1565.81226	-1063.00415	31.69896	1510.61987	-879.76306	35.92308	1583.7262	-1174.06433	1776.45544	1466.91406	2845.83179	1034.21252	-3357.22876	NaN	NaN	NaN	NaN	NaN	NaN
